<?xml version="1.0" encoding="utf-8"?>
<!-- Generator: Adobe Illustrator 18.1.1, SVG Export Plug-In . SVG Version: 6.00 Build 0)  -->
<svg version="1.1" id="Layer_1" xmlns="http://www.w3.org/2000/svg" xmlns:xlink="http://www.w3.org/1999/xlink" x="0px" y="0px"
	 width="24px" height="24.001px" viewBox="0 0 24 24.001" enable-background="new 0 0 24 24.001" xml:space="preserve">
<g>
	<g>
		<path fill="#FFFFFF" d="M8,20.5c-1.379,0-2.5-1.121-2.5-2.499v-5c0-1.208,0.86-2.218,2-2.45V8c0-2.481,2.019-4.5,4.5-4.5
			c2.48,0,4.499,2.019,4.499,4.5v2.55c1.141,0.232,2.002,1.243,2.002,2.45v5c0,1.378-1.122,2.499-2.502,2.499H8z M12,15.563
			l0.245-0.146c0.076-0.045,0.255-0.177,0.255-0.417c0-0.275-0.225-0.499-0.5-0.499s-0.5,0.224-0.5,0.499
			c0,0.24,0.178,0.372,0.255,0.417L12,15.563L12,15.563z M13.499,10.5V8c0-0.827-0.673-1.5-1.499-1.5c-0.827,0-1.5,0.673-1.5,1.5
			v2.5H13.499z"/>
	</g>
	<path fill="#55565A" d="M15.999,11V8c0-2.204-1.794-4-3.999-4S8,5.796,8,8v3c-1.106,0-2,0.896-2,2v5.001
		c0,1.104,0.894,1.999,2,1.999h7.999c1.106,0,2.002-0.895,2.002-1.999v-5.001C18.001,11.897,17.105,11,15.999,11z M12.5,15.848V17.5
		c0,0.277-0.223,0.501-0.5,0.501c-0.277,0-0.501-0.224-0.501-0.501v-1.653C11.205,15.673,11,15.367,11,15.001
		c0-0.553,0.449-0.999,1-0.999c0.552,0,1,0.446,1,0.999C13,15.367,12.794,15.673,12.5,15.848z M13.998,11H10V8c0-1.102,0.896-2,2-2
		c1.104,0,1.998,0.898,1.998,2V11z"/>
</g>
</svg>
