<?xml version="1.0" encoding="utf-8"?>
<!-- Generator: Adobe Illustrator 18.1.1, SVG Export Plug-In . SVG Version: 6.00 Build 0)  -->
<svg version="1.1" id="Layer_1" xmlns="http://www.w3.org/2000/svg" xmlns:xlink="http://www.w3.org/1999/xlink" x="0px" y="0px"
	 width="24px" height="24.001px" viewBox="0 0 24 24.001" enable-background="new 0 0 24 24.001" xml:space="preserve">
<g>
	<path fill="#FFFFFF" d="M19.977,20.493c0.347-0.665,0.522-1.585,0.522-2.28c0-2.875-2.925-5.257-6.799-5.805
		c1.707-0.68,2.92-2.341,2.92-4.287c0-2.548-2.073-4.621-4.621-4.621S7.379,5.573,7.379,8.121c0,1.95,1.218,3.613,2.93,4.29
		C6.429,12.974,3.5,15.428,3.5,18.306c0,0.694,0.176,1.506,0.522,2.171L19.977,20.493z"/>
	<g>
		<circle fill="#55565A" cx="12" cy="8.121" r="4.121"/>
		<path fill="#55565A" d="M12,12.728c-4.419,0-8,2.437-8,5.45c0,0.638,0.169,0.814,0.465,1.814h15.069
			c0.296-1,0.466-1.176,0.466-1.814C20,15.165,16.417,12.728,12,12.728z"/>
	</g>
</g>
</svg>
